<svg width="100" height="100" viewBox="0 0 100 100" fill="none" xmlns="http://www.w3.org/2000/svg">
<circle cx="50" cy="50" r="50" fill="#213A33"/>
<path d="M57 49.5C57 55.5122 55.9672 60.8609 54.375 64.632C53.5772 66.5215 52.6784 67.9213 51.7824 68.8189C50.8941 69.7087 50.1246 70 49.5 70C48.8754 70 48.1059 69.7087 47.2176 68.8189C46.3216 67.9213 45.4228 66.5215 44.625 64.632C43.0328 60.8609 42 55.5122 42 49.5C42 43.4878 43.0328 38.1391 44.625 34.368C45.4228 32.4785 46.3216 31.0787 47.2176 30.1811C48.1059 29.2913 48.8754 29 49.5 29C50.1246 29 50.8941 29.2913 51.7824 30.1811C52.6784 31.0787 53.5772 32.4785 54.375 34.368C55.9672 38.1391 57 43.4878 57 49.5Z" stroke="#5EC269" stroke-width="4"/>
<circle cx="49.5" cy="49.5" r="20.5" stroke="#5EC269" stroke-width="4"/>
<line x1="27" y1="50" x2="72" y2="50" stroke="#5EC269" stroke-width="4"/>
</svg>
