<?xml version="1.0" encoding="UTF-8"?>
<svg id="Calque_1" xmlns="http://www.w3.org/2000/svg" version="1.1" viewBox="0 0 100 100">
  <!-- Generator: Adobe Illustrator 29.3.1, SVG Export Plug-In . SVG Version: 2.1.0 Build 151)  -->
  <defs>
    <style>
      .st0 {
        fill: #1e2d4e;
      }

      .st1 {
        fill: #4e80ee;
      }
    </style>
  </defs>
  <circle class="st0" cx="50" cy="50" r="50"/>
  <path class="st1" d="M50,33.4c.8.6,1.6,1,2.6,1.5,2.2,1.1,4.6,1.7,7.2,1.9.4,0,.8,0,1.4,0,.8,0,2.1,0,2.9-.1,1.2-.2,2.3-.4,3.3-.7-.5.7-.9,1.4-1.2,2.2-.6,1.7-.7,3-.5,6,.2,5-.6,9.4-2.3,12.8-.9,1.7-1.8,3-3.1,4.3-1,1-1.7,1.6-2.8,2.3-1.5,1-3.1,1.8-6,2.9-.4.2-.9.4-1.3.6-.4-.2-1-.4-1.7-.7-1.7-.7-2.2-.9-3.1-1.4-3.9-1.9-6.6-4.4-8.4-7.9-1.3-2.5-2-5.4-2.3-9.1,0-.9,0-4,0-5,.2-2.9-.4-5.3-1.8-7,.8.3,1.7.5,2.6.6,1.3.2,1.8.2,3.4.2h0c1.3,0,1.7,0,2.6-.1,3.3-.4,6.2-1.5,8.7-3.3,0,0,0,0,0,0M50,29.5l-.3.3c-.4.4-1,.9-1.5,1.3-2.1,1.4-4.5,2.3-7.3,2.7-.6,0-.9,0-2.2,0-1.5,0-1.8,0-2.9-.2-1.8-.3-3.4-.9-4.7-1.6-.2-.1-.3-.2-.3-.2s-.4,1.1-.8,2.4c-.6,1.7-.8,2.5-.8,2.5.2,0,.6.4.9.7,1.1,1.2,1.7,3,1.5,5.4,0,1.3,0,4.4,0,5.5.3,4.1,1.2,7.4,2.7,10.3,2.1,4,5.2,7,9.7,9.2,1.1.5,1.6.7,3.3,1.5,1.6.6,2.3,1,2.6,1.1h.2c0,.1.6-.2.6-.2.3-.2,1.2-.5,1.9-.8,3.1-1.2,4.8-2.1,6.5-3.2,1.3-.8,2.2-1.6,3.3-2.7,1.6-1.6,2.7-3.1,3.7-5.1,1.9-3.9,2.8-8.8,2.6-14.3-.1-2.8,0-3.6.4-4.8.3-1,1-1.9,1.7-2.3.2-.1.3-.2.2-.2,0,0-.4-1.1-.8-2.4-.4-1.3-.8-2.4-.8-2.4,0,0,0,0,0,0,0,0-.2,0-.3.2-1.4.9-3.2,1.4-5.4,1.7-.5,0-1.6.1-2.5.1s-.8,0-1.1,0c-2.2-.2-4.3-.7-6.1-1.6-1.4-.7-2.4-1.4-3.5-2.4l-.4-.3h0Z"/>
</svg>